# xmcd
#
# Track frame offsets:
#	150
#	12717
#	24207
#	41094
#	56361
#	70371
#	86588
#	96218
#	107498
#	120490
#	132242
#
# Disc length: 1868 seconds
#
# Revision: 0
# Processed by: cddbd v1.4PL0 Copyright (c) Steve Scherf et al.
# Submitted via: dBpowerAMP V4.0
#
DISCID=8b074a0b
DTITLE=The Melody Makers - God Lets The Sun Shine On Us
DYEAR=1900
DGENRE=Bluegrass
TTITLE0=God Lets The Sun Shine On Us
TTITLE1=White Dove
TTITLE2=The Light House
TTITLE3=Tear Stains In The Sand
TTITLE4=Go Rest High On That Mountain
TTITLE5=When He Was On The Cross
TTITLE6=A Million Years In Glory
TTITLE7=Gone Home
TTITLE8=Will The Circle Be Unbroken
TTITLE9=Somewhere In Glory
TTITLE10=I'll Fly Away
EXTD=Recorded By Todd Makris
EXTT0=
EXTT1=
EXTT2=
EXTT3=
EXTT4=
EXTT5=
EXTT6=
EXTT7=
EXTT8=
EXTT9=
EXTT10=
PLAYORDER=
